<?xml version="1.0" standalone="no"?>
<!DOCTYPE svg PUBLIC "-//W3C//DTD SVG 20010904//EN"
 "http://www.w3.org/TR/2001/REC-SVG-20010904/DTD/svg10.dtd">
<svg version="1.0" xmlns="http://www.w3.org/2000/svg"
 width="835.000000pt" height="835.000000pt" viewBox="0 0 835.000000 835.000000"
 preserveAspectRatio="xMidYMid meet">
<metadata>
Created by potrace 1.14, written by Peter Selinger 2001-2017
</metadata>
<g transform="translate(0.000000,835.000000) scale(0.100000,-0.100000)"
fill="#000000" stroke="none">
<path d="M4215 7905 c-11 -13 -24 -24 -29 -25 -5 0 -105 -97 -223 -215 -118
-118 -218 -215 -223 -215 -7 0 -129 -121 -338 -335 -51 -52 -97 -95 -101 -95
-8 0 -178 -166 -667 -651 -116 -115 -214 -209 -218 -209 -4 0 -103 -97 -220
-215 -117 -118 -216 -215 -220 -215 -4 0 -104 -97 -221 -215 -118 -118 -217
-215 -220 -215 -4 0 -107 -101 -231 -225 -123 -124 -227 -225 -231 -225 -4 0
-103 -97 -220 -215 -117 -118 -216 -215 -220 -215 -4 0 -35 -28 -69 -62 -35
-35 -80 -80 -101 -100 -21 -20 -64 -64 -96 -97 l-58 -61 20 -22 c12 -12 21
-25 21 -29 0 -4 35 -42 77 -83 43 -41 83 -80 88 -86 6 -5 67 -68 138 -138 70
-71 127 -132 127 -136 0 -4 97 -105 215 -223 118 -119 215 -219 215 -223 0 -4
97 -104 215 -223 118 -119 215 -219 215 -223 0 -5 66 -74 177 -187 5 -4 63
-62 131 -128 67 -67 122 -125 122 -129 0 -5 97 -106 215 -225 118 -118 215
-218 215 -222 0 -3 62 -68 138 -144 75 -76 173 -177 217 -224 44 -47 178 -184
298 -305 119 -121 217 -223 217 -226 0 -9 19 -28 238 -249 105 -106 192 -196
192 -200 0 -3 79 -85 175 -181 132 -131 179 -173 190 -166 9 4 847 839 1863
1855 1017 1016 1852 1847 1856 1847 12 0 146 139 146 151 0 5 -45 54 -100 109
-55 54 -100 102 -100 106 0 3 -71 78 -157 165 -87 87 -185 187 -218 224 -33
36 -156 162 -272 280 -117 118 -213 218 -213 221 0 7 -42 51 -277 288 -79 78
-143 146 -143 149 0 4 -97 104 -215 223 -118 118 -215 219 -215 223 0 5 -102
112 -227 239 -439 446 -637 650 -641 661 -2 6 -99 107 -215 226 -117 118 -266
271 -332 341 -66 69 -137 142 -158 162 -108 105 -157 156 -157 163 0 5 -25 32
-55 62 -30 29 -55 59 -55 65 0 7 -7 12 -15 12 -7 0 -18 7 -22 15 -7 11 -12 10
-28 -10z"/>
</g>
</svg>
